# xmcd
#
# Track frame offsets:
#	150
#	13820
#	21815
#	33185
#	48520
#	65775
#	115592
#	132267
#	159157
#	181085
#	198337
#	212275
#	218952
#	230207
#	254532
#	275320
#	297607
#	308275
#
# Disc length: 4415 seconds
#
# Revision: 1
# Processed by: cddbd v1.5.1PL0 Copyright (c) Steve Scherf et al.
# Submitted via: CDex 1.50Beta5
#
DISCID=fe113d12
DTITLE=さまざまなアーティスト - Seven Winters
DYEAR=1900
DGENRE=Rock
TTITLE0=astrobrite/astrobrite
TTITLE1=GYMKHANA/GYMKHANA
TTITLE2=moonwalk/moonwalk
TTITLE3=Hot Zex/Hot Zex
TTITLE4=Ca-P/Ca-P
TTITLE5=dive/dive
TTITLE6=well/well
TTITLE7=airiel/airiel
TTITLE8=girl like you/girl like you
TTITLE9=wave/wave
TTITLE10=VERTIGO/VERTIGO
TTITLE11=Christina/Christina
TTITLE12=coming up like a day/coming up like a day
TTITLE13=maikotobranco/maikotobranco
TTITLE14=HARU NO GYOUNINZAKA/HARU NO GYOUNINZAKA
TTITLE15=Cochineal/Cochineal
TTITLE16=Christia/Christia
TTITLE17=dive/dive
EXTD=
EXTT0=
EXTT1=
EXTT2=
EXTT3=
EXTT4=
EXTT5=
EXTT6=
EXTT7=
EXTT8=
EXTT9=
EXTT10=
EXTT11=
EXTT12=
EXTT13=
EXTT14=
EXTT15=
EXTT16=
EXTT17=
PLAYORDER=
